/* XPM */
static char *result[] = {
/* columns rows colors chars-per-pixel */
"64 64 102 2 ",
"   c #7D7D7D",
".  c #88827D",
"X  c #D59C6E",
"o  c #DC9D6A",
"O  c #CE9C73",
"+  c #C69C7A",
"@  c #CA9D78",
"#  c #D49E73",
"$  c #D99F71",
"%  c #D09F78",
"&  c #DEA06F",
"*  c #CDA17C",
"=  c #D5A176",
"-  c #DAA173",
";  c #D6A278",
":  c #DAA57A",
">  c #E0A06E",
",  c #E0A373",
"<  c #E1A779",
"1  c #EDAC7F",
"2  c #F2AD7E",
"3  c #848484",
"4  c #898380",
"5  c #8D8986",
"6  c #8C8C8C",
"7  c #918E8C",
"8  c #96918E",
"9  c #9B938C",
"0  c #919191",
"q  c #9B9693",
"w  c #9E9894",
"e  c #9C9B9B",
"r  c #A2958E",
"t  c #AA9B8F",
"y  c #A09791",
"u  c #A29A95",
"i  c #A29E9B",
"p  c #A5A19E",
"a  c #ACA49E",
"s  c #B4A89F",
"d  c #A5A5A5",
"f  c #ABA6A2",
"g  c #ACA9A6",
"h  c #A9A9A9",
"j  c #B0A7A2",
"k  c #B2ABA6",
"l  c #B9AFA6",
"z  c #B2AEAB",
"x  c #B8AFA9",
"c  c #B2B0AE",
"v  c #BDB3AB",
"b  c #B5B5B5",
"n  c #BCB6B2",
"m  c #BCB9B6",
"M  c #BABABA",
"N  c #D4A485",
"B  c #DBA887",
"V  c #DFAC8A",
"C  c #E3AA85",
"Z  c #EAAD85",
"A  c #E2AE8D",
"S  c #EAAF88",
"D  c #F3AF81",
"F  c #EBB28D",
"G  c #F4B084",
"H  c #F5B48A",
"J  c #E4BB9E",
"K  c #C3B3A6",
"L  c #DABCA7",
"P  c #DDBDA8",
"I  c #C3BDB8",
"U  c #E3BDA3",
"Y  c #E1BFA8",
"T  c #F4C29F",
"R  c #C4C1BF",
"E  c #E6C0A7",
"W  c #EAC0A3",
"Q  c #E5C1A8",
"!  c #ECC5AB",
"~  c #EDC8AF",
"^  c #F4C5A3",
"/  c #F8C7A7",
"(  c #F2C5A8",
")  c #F5C9AD",
"_  c #F8CBAD",
"`  c #EECBB3",
"'  c #F0C9B0",
"]  c #F9CEB1",
"[  c #F9D1B6",
"{  c #E7D8CE",
"}  c #EFDACC",
"|  c #F2D9C7",
" . c #F9DAC4",
".. c #F5DDCD",
"X. c #FBDFCC",
"o. c #EBDBD1",
"O. c #F0DFD3",
"+. c #F8E0CE",
"@. c #F2E2D6",
"#. c #FBE4D4",
"$. c #FBE7DA",
"%. c #FCE9DC",
/* pixels */
"h h d d 0 0 0 0 0 0 0 0 0 0 0 0 0 0 0 0 h h d h M b M b M b M c 6 3 3 0 b b b b h h d h 0 0 0 0 0 0 0 0 0 0 0 0 0 0 0 0 d d h d ",
"h d d d 0 0 0 0 0 0 0 0 0 0 0 0 0 0 0 0 d d d h b b b b b b b c 3 3 3 6 b b M b h d d d 0 0 0 0 0 0 0 0 0 0 0 0 7 0 0 0 d d d d ",
"h d d d 0 0 6 0 0 0 0 0 0 0 0 0 0 0 0 0 d d d h M b b M b b b c 6 3 3 6 b M b b d d d d 6 0 0 0 0 0 0 0 0 0 0 0 0 0 0 0 d d h d ",
"h d d d 0 0 0 0 0 0 0 q 0 0 0 0 0 0 0 q d h h h b b b b b b b c 6 3 3 6 b b b b h d h h 0 0 0 0 0 6 0 0 0 0 0 0 0 0 0 0 d d d d ",
"d d h d d d d h b b b b b b M b b M b b b M b b b b b b M b b b h d d h b b b b b b M b b b b c 6 3   3 d d d d d h d d 0 6 0 0 ",
"h d d d d d d d b M b b b b b b b b b b b b b b M b b b b b b b h d d h b b b b b b b b b b b c 6 3 3 6 d d d d d d d d 0 0 6 0 ",
"h d d d h d d d b b b b b b b M b b b b b b b b b b b b b b b b h d d h b b b b b b M b b b b c 6 3 3 3 d d d d d d d h 0 0 0 0 ",
"h d d d d d d d c b b c b c b b n n n b b b b c c b b b b b b c h h d h c b b b b b b b b b b c 0 3 5 6 i f a f h d d d 0 0 0 0 ",
"h d d d 6 3 3 6 0 0 e 0 e 0 e e A S F F 0 e 0 e e 0 e 0 e 0 q e c b b h e q 0 0 h h h h h h h z L Q Q J ; # = @ d d d d d d d i ",
"h d d e 3 3 3 3 0 0 0 0 6 0 0 y S G G G 0 0 0 0 0 6 0 0 0 0 0 q b b M h 0 0 0 0 h d d d d d d h ! _ _ / , o o # f d d d d d d d ",
"h d d d 3   3 3 6 0 0 0 0 0 0 r S D D D 0 0 0 0 0 6 0 0 0 6 0 0 b b b b 0 0 0 0 d d d d d d h h ! _ _ / , o o % f d d d h d d d ",
"h d d d 6 6 6 6 0 0 0 0 0 q 0 y A S S S 7 6 6 7 0 0 0 q q q u u z x b h 0 0 0 0 d p d d p d d h P Q Q U = X X @ p d d d d d d d ",
"d d d h b c b h d d d d d d d d h d g f 3 3 3 6 d d d d Y ! ! U : $ $ @ f d d d 0 0 0 0 0 0 0 0 q q q q 0 8 8 8 0 0 0 0 d d d d ",
"h d d h b M b b h d d d d d d d d d d h 3 3 3 3 h d d h ! _ _ ^ $ o o % f d d d 0 0 6 0 0 0 0 0 0 0 0 0 0 0 0 0 0 0 0 0 d d h d ",
"h d d h b b b b h d d d d d d d d d d d 3 3 3 3 d d d h ! ] _ ^ , o o # f d d d 0 0 0 0 0 6 0 0 0 0 6 0 6 0 0 6 0 0 0 0 d h d d ",
"h d d d b b b b h h h d d p p p p p d p 3 3 3 3 d p d d P Y Y U % # O + i d d p e 0 0 e e e 0 e 0 q q q e 0 e e e 0 0 e e e p i ",
"h d d h b b b b b b b c 0 0 0 0 0 0 0 0 0 6 0 6 0 0 0 0 q q q q 8 9 8 8 0 0 0 0 h b b b c b b b b b b c b b b c b c b b 6 3 3 6 ",
"h d d h b b b b b b b b e 0 0 6 0 0 0 0 0 0 0 0 0 0 0 0 0 0 0 6 8 6 8 0 0 0 0 0 b b b b b b b b b b b b b b b b b b b b 3 3 3 3 ",
"h d d h M b M b b b b c 0 0 0 0 0 0 0 0 6 0 0 6 0 6 6 0 0 0 6 0 0 0 0 0 0 0 6 0 b b b b b b b M b b b b b b b b b b b M 3     3 ",
"d d d h b b b b M b b c 0 0 0 0 0 0 0 6 0 0 0 0 0 0 0 0 0 0 0 0 0 6 0 6 0 0 0 0 b b b b b b b b b b b b M b b b b b b b 3 3 3 3 ",
"0 0 0 0 0 0 0 0 p d d d d d h d d d d d @.%.%.@.) ) _ ! y 0 0 0 d d d e 3 3 3 3 ) ] _ _ G G G Z g h h h d d h e 3 3 3 3 d d d d ",
"0 0 6 0 0 0 0 0 d d d d d d d d d h d d %.%.%.%._ _ _ ( u 0 0 0 d d d p 3 3 3 3 ) _ _ ) 2 D 2 Z g h d d h d h e 3 3 3   d d h d ",
"0 0 0 0 0 0 0 0 d d h d h d h d d d d d %.%.%.%.] _ ] ( y 0 0 0 d d h e 3 3 3 3 ( _ _ ) D D D S s d d d d d d p 3 3 3 3 d d d d ",
"e 0 0 e 0 0 0 0 d d d h g h g h g h h h #.#.$.#./ _ / ( u 8 8 8 d h d p 3 3 3 3 / _ _ / 2 D 2 Z s h h d h h h p 6 3 6 3 e d d d ",
"b b b b b b M b h d d b @.%.%.#.[ _ _ _ G G G G D D D D > o o # d d d d d d d h F D G D o o o = b b b b b b b b b b b b 3 3 3   ",
"b b b b b b b b h d h h @.%.%.#.] _ _ _ G G G G D D D 2 > o o $ a d d d d d d d G G G D o o o - c b b b b b b b M b M b 6 3 3 3 ",
"M b b b b b b b h d d b @.%.%.#.] ] _ _ G G D D 2 2 D 2 > o o # a d d d d d d d G G G G o o o - v b b b b M b b b b b b 3 3 3   ",
"b b b b b b b b h d d z o.@.@...' ( ! ) D S S Z D Z D Z $ X X # p d d d d d d d Z Z Z Z X X X % l b b b b b b b b b b b 6 3 3 3 ",
"h h h h h h h h d d d d i i i i u u e u y r 9 r r r y r 9 9 9 9 q 0 0 0 0 0 q 0 q 9 y 9 9 9 8 8 q q q 0 0 e 0 e h h h h d e d e ",
"h h d d d d d d d d d d 0 8 0 6 0 0 0 0 0 0 0 0 0 0 0 0 0 7 0 0 0 0 0 0 0 0 0 0 0 0 8 0 7 0 0 0 0 6 0 0 0 0 0 0 d d d d d d h d ",
"h d d d d d d d d h d d 0 0 0 0 0 0 0 0 0 0 0 0 6 0 0 0 0 0 0 0 0 0 8 0 0 0 0 0 0 0 0 0 0 0 0 0 0 0 0 0 0 0 0 0 d d d d d d d d ",
"h d d h h c h z j j g a 0 6 6 0 0 q 0 0 0 6 0 6 0 0 0 0 0 0 0 0 e e e e q w q q 0 q 0 q 0 0 e 0 0 e 0 0 0 e 0 e d d h h h d h h ",
"h d d k ~ ( ( ( F S S B .   3 3 c b b b 0 6 0 0 d d d d d d d g { O.o...! ! ! ! b b c b b h b c c c b b b b b c b b b b b b b b ",
"h h d h _ _ ] _ H D D C .     6 b M M M 0 0 0 0 d d d d d d d c @.%.%.#._ _ _ _ b b b b b b b b b M b b b b b b b b b b b b b b ",
"d d h j _ _ _ / H G D C .     3 b b b M 0 0 0 0 d d d d d d f c @.%.%.#.] _ _ _ n b b b b M b b b b b b b b b b b b b b b b b b ",
"h d d h Q Y Y Y A A C N .     6 h b b c 0 0 0 0 d i d d g l c K | X.+. .^ T ^ ^ v v v v b h z c c b h c b h b h b b b b b b b b ",
"h d d d 0 q q 0 0 8 8 8 0 0 6 6 0 0 0 0 0 0 0 0 0 0 0 q Q ) ~ ( H H H 2 & - & & o # o # 0 0 0 0 0 0 0 0 0 0 0 e b b b b d d d h ",
"h d d d 6 0 0 0 0 0 0 0 6 0 0 0 0 0 0 0 6 0 0 6 0 6 0 q Q _ _ ( H 2 2 2 o o o o o o o o 0 0 0 0 0 0 0 0 0 0 0 e b M b b d d d d ",
"d d d d 0 0 0 0 0 7 7 0 0 0 0 0 6 0 0 0 0 0 0 0 0 0 0 q Q _ ) ) G 2 2 2 o o o o o o o o 0 0 0 0 0 0 0 0 0 0 6 0 b b b b h d d d ",
"h d d d 0 6 0 6 0 0 7 0 6 0 0 6 0 0 0 0 6 0 0 6 0 6 0 q Q _ _ ) H D 2 2 > o o o o o o X 0 0 0 0 0 6 0 6 0 0 0 e b b b b d d h d ",
"h d d d d d d d b M M b 0 6 0 r V Z D Z M M M M M M M b e 0 0 q f d g p q 0 0 0 b m m M M M M M M M M b h d d d d d d h d d d h ",
"h d h d d d d h M M M b 0 0 0 y S G G G m M M M M M M b q 0 0 0 d f d d 0 0 0 0 M M M M M M M M M M M b h d d d d d d h d d d d ",
"d d d d d d d h b M M b e 0 0 y S G G G m M M M M M M M q 0 0 0 d d d d 0 0 0 0 b M M M M M M M M M M M h d d d d d d d d d d d ",
"d d d d d d d h b M M b 0 0 0 e C Z Z G M M M M M M M b e 0 0 0 d d d p 0 0 0 q M M M M M I m m m m M M h d h h h d h d d d d d ",
"3 3 3 6 h d d d d d d d d d d d 0 0 6 0 d d d h d d d d d d d h b M M M M M M M d d d g _ _ _ ^ < o o $ K M M M M M M M 3 3 3   ",
"3   3 3 d d h d d d d d d d d p 0 0 0 0 d d d d d d d d d d d h M M M M M M M M h d d d _ _ ) ^ < o o - n M M M M M M M 6 3 3 3 ",
"3 3 3 3 d d d d d d d d d d d d 0 0 6 0 d d d d d d d d d d d d b M M M M M M M h d d h _ _ _ / < o o - n M M M M M b M 3 3 3   ",
"6 6 3 6 p d d d d d e d d d p i 0 0 0 0 d d d d d p d d d d d d I I I I R R R R k k z l _ / / T < > & - K n M b b b b b 6 6 3 6 ",
"i p d e 0 0 0 0 e 0 0 0 e 0 0 0 0 0 6 0 0 q 0 0 0 0 0 e 0 0 q e Q ~ ~ ` +.@.@.@.! ! ! ! H H H H D D D Z : ; % @ w q 0 e i e p d ",
"d d d d 0 0 0 0 0 0 0 0 0 0 0 0 0 0 0 0 0 0 0 0 0 0 0 0 0 0 0 e ! _ _ [ $.%.%.%.] _ ) _ 2 2 2 2 D D D D > o > X 0 0 0 0 d d d d ",
"d d d d 0 0 6 0 0 0 0 0 0 0 0 0 6 0 6 7 0 0 0 0 0 0 0 0 0 0 6 e ! _ _ [ $.%.%.%._ _ _ _ 2 G 2 G D D D D > o o # 0 0 0 0 d d d d ",
"h d d d 0 e 0 0 0 0 0 0 q q e 0 9 9 9 9 0 0 0 0 0 0 0 0 6 0 0 q Q ! ! ~ ..+.+.+.( ( ^ ^ Z D C Z S S S C $ # X @ q q 0 q d h h h ",
"h d d h b b b b d d d g Y Q ! J = X X O e d d d d d e d 0 0 6 0 q q w t : < < : , > , - 8 9 q q f j j j f a f f b b b b b M M b ",
"h d d h M M M M h d d k ~ ] _ ^ & o & o d d d h d d d d 0 0 0 0 0 6 0 9 X o & o & o o & 0 0 7 q p h d d d d d h b M M M M M M M ",
"d d d h M M M M h d d k ) _ _ J & & o o d d d d d d d d 0 0 0 0 0 0 8 9 X o o o o o o o 0 0 0 0 d d d d d d d h M M M M M M M M ",
"h d d h b M b b h d h j Y Y ( J O O O O d d i d d e d d 0 0 0 0 0 q q 9 O = O = ; ; ; ; e 0 q e d d d d d p d d b b b b b M b M ",
"h d h d d h h d d d d d q 0 q q 0 7 8 8 0 0 0 0 0 0 0 0 0 0 0 q d d d d d p f a b M M b M b M b h d d d 0 0 0 0 0 0 0 0 h h h d ",
"h d d d d d d d d d d p 0 0 0 0 0 0 6 0 0 0 0 0 0 0 0 6 6 0 0 0 d d h d d d d d M M M M M M M b h d d d 0 0 0 0 0 0 0 0 d d d d ",
"h d d d d d d d d d d d 0 0 0 6 0 6 6 0 0 0 0 0 0 0 0 0 0 0 0 0 d d d d d d d d M M M M M M M M h d d d 0 0 0 0 0 0 0 0 d d d h ",
"h d d d h d d d d h d d 0 0 0 0 0 0 0 0 6 0 0 6 6 0 0 6 0 0 0 0 e h d d d h d d M M M M M M M M h d h d 0 0 0 0 0 6 0 6 d d d d ",
"0 0 0 0 0 0 0 0 0 0 0 0 0 6 0 6 3 3 3 3 b M b M b M M b h d d d d h d d d d d d d h h d 0 0 0 0 0 0 0 0 0 6 0 0 d d d d d h d d ",
"0 0 0 0 0 0 0 0 0 0 0 0 0 0 0 0 3 3 3 3 M M M M M M M M h d d d d d d d h d h d d h d d 0 0 0 0 0 0 0 0 0 0 0 0 d d d d d d d d ",
"0 0 0 0 6 0 6 0 0 6 0 6 6 0 0 6 3 3 3 3 M M M M M M M M h h d d d d d h d h d d d d d d 0 0 0 6 0 0 0 0 0 6 0 0 d d d d d d d h ",
"0 0 0 0 0 0 0 0 0 0 0 0 0 0 0 6 3 3   3 M M M M M M M M h d d d h d d d d d d d d d d d 0 0 0 0 6 0 0 6 0 0 0 0 d d d d h d d d "
};
