/* XPM */
static char *result[] = {
/* columns rows colors chars-per-pixel */
"64 64 192 2 ",
"   c gray58",
".  c #939393",
"X  c #818181",
"o  c #808080",
"O  c #AAAAAA",
"+  c gray29",
"@  c #515151",
"#  c gray64",
"$  c gray52",
"%  c gray78",
"&  c gray80",
"*  c #838383",
"=  c #848484",
"-  c gray59",
";  c gray31",
":  c #565656",
">  c #A4A4A4",
",  c #7C7C7C",
"<  c #868686",
"1  c gray76",
"2  c #A7A7A7",
"3  c gray66",
"4  c gray56",
"5  c gray57",
"6  c #4E4E4E",
"7  c gray32",
"8  c #929292",
"9  c #AB0900",
"0  c #A81209",
"q  c #837877",
"w  c #DB3931",
"e  c #D8362E",
"r  c #AE0C04",
"t  c #A9130B",
"y  c #A61B13",
"u  c #7F7574",
"i  c #828181",
"p  c #847878",
"a  c #847877",
"s  c #AB9F9E",
"d  c #A89C9C",
"f  c #848483",
"g  c #D53E37",
"h  c #D13B34",
"j  c #AB150C",
"k  c #959595",
"l  c #A2A2A2",
"z  c #968A89",
"x  c #918685",
"c  c #535252",
"v  c #958989",
"b  c #B71C14",
"n  c #BA120A",
"m  c #BD150D",
"M  c #BA1E17",
"N  c #877B7A",
"B  c #867B7A",
"V  c #978A8A",
"C  c #BB140C",
"Z  c #BE0A01",
"A  c gray65",
"S  c #887877",
"D  c #877978",
"F  c #838282",
"G  c gray49",
"H  c #AD9F9E",
"J  c #ADA0A0",
"K  c #9D9D9D",
"L  c gray33",
"P  c gray51",
"I  c #E4160C",
"U  c #E02017",
"Y  c #AB9D9C",
"T  c gray63",
"R  c #D1170E",
"E  c #D11910",
"W  c #D42C24",
"Q  c #D52E25",
"!  c #797979",
"~  c #EC0E03",
"^  c #E7190F",
"/  c #AF9F9E",
"(  c #D40C02",
")  c #D40E04",
"_  c #D82219",
"`  c #D8241B",
"'  c #998C8B",
"]  c #D32C24",
"[  c #BD0C03",
"{  c #B41F17",
"}  c #B32119",
"|  c #990800",
" . c #9D0800",
".. c #D00C02",
"X. c #988C8C",
"o. c #CD322A",
"O. c #D22B22",
"+. c #B9140C",
"@. c #B0261F",
"#. c #AF2820",
"$. c #CE140B",
"%. c #961008",
"&. c #9A1008",
"*. c #CA140B",
"=. c #939292",
"-. c #877B7B",
";. c #867979",
":. c #847979",
">. c #867877",
",. c gray34",
"<. c #766B6B",
"1. c #776C6C",
"2. c #857776",
"3. c gray45",
"4. c #747474",
"5. c gray50",
"6. c #890700",
"7. c #850C05",
"8. c #4F4545",
"9. c #958B8A",
"0. c #A71B13",
"q. c #881009",
"w. c #84140E",
"e. c #524949",
"r. c #A7A6A6",
"t. c #AD9F9F",
"y. c #D10C02",
"u. c #D31006",
"i. c #D41107",
"p. c #ADA1A0",
"a. c #A7A7A6",
"s. c #A9A9A9",
"d. c #847A79",
"f. c #817777",
"g. c #807877",
"h. c #897B7B",
"j. c #CB1F16",
"k. c #AE0900",
"l. c #B00E05",
"z. c #CC423B",
"x. c #CE473F",
"c. c #CF342C",
"v. c #897D7C",
"b. c #979797",
"n. c #AE0E05",
"m. c #CC463F",
"M. c #CE4B44",
"N. c #BB0A01",
"B. c #BA150D",
"V. c #AA9D9D",
"C. c #AAA9A9",
"Z. c #AB9F9F",
"A. c #AA9E9D",
"S. c #979696",
"D. c #9C0800",
"F. c #9B120B",
"G. c #968B8B",
"H. c #BB2018",
"J. c #99120B",
"K. c #948A89",
"L. c #BF0D04",
"P. c #C8352D",
"I. c #C93830",
"U. c #C04B43",
"Y. c #C0463E",
"T. c #BE0F06",
"R. c #807F7F",
"E. c #867878",
"W. c #BB150D",
"Q. c #C9372F",
"!. c #CB3932",
"~. c #CB4740",
"^. c #C94E48",
"/. c #C84F48",
"(. c #BD5049",
"). c #BD4C44",
"_. c #BB1810",
"`. c #B51A13",
"'. c #CA1D15",
"]. c #978A89",
"[. c #8B7473",
"{. c #D64E47",
"}. c #DD4B44",
"|. c #AB160D",
" X c #887473",
".X c #867C7C",
"XX c #978F8E",
"oX c #CF160C",
"OX c #998A8A",
"+X c #877C7C",
"@X c #D75049",
"#X c #DE4C45",
/* pixels */
"      . X o o o o o o o o o o o o o o X .       O O O O O O O O + + + @ # O O O       . X o o o o o o o o o o o o o o $ % & & & ",
"      . X o o o o o o o o o o o o o o X .       O O O O O O O O + + + @ # O O O       . X o o o o o o o o o o o o o o $ % & & & ",
"      . X o o o o o o o o o o o o o o X .       O O O O O O O O + + + @ # O O O       . X o o o o o o o o o o o o o o $ % & & & ",
"      . * X X X * * * * * * * * * * * =   - - - O O O O O O O O ; ; ; : > O O O - - -   = * * * , , , , o o o o X X X < 1 % % % ",
"        . . . . 2 2 2 2 2 2 2 2 2 2 2 2 3 3 3 3 O O O O O O O O 4 4 4 5 3 O O O 3 3 3 3 2 2 2 2 6 6 6 7 X $ $ $ . . . 8 < $ $ $ ",
"                O O O O O O O O O O O O O O O O O O O O O O O O       - 3 O O O O O O O O O O O + + + 6 X $ $ $       . X o o o ",
"                O O O O O O O O O O O O O O O O O O O O O O O O       - 3 O O O O O O O O O O O + + + 6 X $ $ $       . X o o o ",
"                O O O O O O O O O O O O O O O O O O O O O O O O       - 3 O O O O O O O O O O O + + + 6 X $ $ $       . X o o o ",
"      4 ; + + + o o o o o o o o 9 9 9 0 q o o o o o o o o o o o O O O 2 * o o o                 w w w e r 9 9 9                 ",
"      4 ; + + + o o o o o o o o 9 9 9 0 q o o o o o o o o o o o O O O 2 * o o o                 w w w e r 9 9 9                 ",
"      4 ; + + + o o o o o o o o 9 9 9 0 q o o o o o o o o o o o O O O 2 * o o o                 w w w e r 9 9 9                 ",
"      4 : @ @ @ X X X X X X X X t t t y u , , , X X X i p a a a s s s d f X X X . . . . . . . . g g g h j 0 0 0 . . . .         ",
"      k l # # # . . . . . . . . z z z x c 6 6 6 . . . v b n n n m m m M z . . . X X X X X X X X N N N B q q q q X X X * .       ",
"      - 3 O O O                       4 ; + + +       V C Z Z Z Z Z Z C V       o o o o o o o o o o o o o o o o o o o X .       ",
"      - 3 O O O                       4 ; + + +       V C Z Z Z Z Z Z C V       o o o o o o o o o o o o o o o o o o o X .       ",
"      - 3 O O O                       4 ; + + +       V C Z Z Z Z Z Z C V       o o o o o o o o o o o o o o o o o o o X .       ",
"      - 3 O O O O O O 2 * o o o o o o o o o o o o o o o o o o o o o o o o o o o O O O O O O O O O O O O O O O O O O O # @ + + + ",
"      - 3 O O O O O O 2 * o o o o o o o o o o o o o o o o o o o o o o o o o o o O O O O O O O O O O O O O O O O O O O # @ + + + ",
"      - 3 O O O O O O 2 * o o o o o o o o o o o o o o o o o o o o o o o o o o o O O O O O O O O O O O O O O O O O O O # @ + + + ",
". . .   A 2 2 2 3 3 3 A = X X X X X X i p a a a S S S D F * * * * * * * G , , , H H H H J J J J 2 2 2 2 2 2 2 2 # # # K L 6 6 6 ",
"X X X P * * * * - - - k . . . . . . . v b n n n I I I U Y 2 2 2 2 2 2 T L 6 6 6 R R R E W Q Q Q * * * * * * * * @ @ @ L ! , , , ",
"o o o o o o o o                       V C Z Z Z ~ ~ ~ ^ / O O O O O O # @ + + + ( ( ( ) _ ` ` ` o o o o o o o o + + + 6 , o o o ",
"o o o o o o o o                       V C Z Z Z ~ ~ ~ ^ / O O O O O O # @ + + + ( ( ( ) _ ` ` ` o o o o o o o o + + + 6 , o o o ",
"o o o o o o o o                       V C Z Z Z ~ ~ ~ ^ / O O O O O O # @ + + + ( ( ( ) _ ` ` ` o o o o o o o o + + + 6 , o o o ",
"O O O O O O O O       ' ] ` ` ` Z Z Z [ { } } } ( ( ( ( ( ( ( ( O O O O O O O O | | |  ...( ( ( O O O O O O O O O O O # @ + + + ",
"O O O O O O O O       ' ] ` ` ` Z Z Z [ { } } } ( ( ( ( ( ( ( ( O O O O O O O O | | |  ...( ( ( O O O O O O O O O O O # @ + + + ",
"O O O O O O O O       ' ] ` ` ` Z Z Z [ { } } } ( ( ( ( ( ( ( ( O O O O O O O O | | |  ...( ( ( O O O O O O O O O O O # @ + + + ",
"3 3 3 3 3 3 3 3       X.o.O.O.O.n n n +.@.#.#.#.$.$.$.$.$.$.$.$.O O O O > # # # %.%.%.&.*.$.$.$.2 2 2 2 2 2 2 2 3 3 3 l : ; ; ; ",
"- - - - - - - -       =.-.;.;.;.a a a a :.:.:.:.>.>.>.>.>.>.>.>.O O O > ,.@ @ @ <.<.<.1.2.>.>.>.* * * * * * * * - - - k 4 4 4 4 ",
"                      . X o o o o o o o o o o o o o o o o o o o O O O # @ + + + 3.3.3.4.5.o o o o o o o o o o o                 ",
"                      . X o o o o o o o o o o o o o o o o o o o O O O # @ + + + 3.3.3.4.5.o o o o o o o o o o o                 ",
"                      . X o o o o o o o o o o o o o o o o o o o O O O # @ + + + 3.3.3.4.5.o o o o o o o o o o o                 ",
"      z t 9 9 9 6.6.6.7.8.+ + + O O O 2 * o o o O O O O O O O O ( ( ( ( ( ( ( ( O O O O O O O O O O O O O O O O O O O O O O O O ",
"      z t 9 9 9 6.6.6.7.8.+ + + O O O 2 * o o o O O O O O O O O ( ( ( ( ( ( ( ( O O O O O O O O O O O O O O O O O O O O O O O O ",
"      z t 9 9 9 6.6.6.7.8.+ + + O O O 2 * o o o O O O O O O O O ( ( ( ( ( ( ( ( O O O O O O O O O O O O O O O O O O O O O O O O ",
"      9.0.0 0 0 q.q.q.w.e.6 6 6 2 2 2 > * o o o 2 2 2 r.t.H H H y.y.y.y.u.i.i.i.J J J p.a.2 2 2 2 2 2 2 2 2 2 2 O O O O s.3 3 3 ",
"      =.d.q q q f.f.f.g., , , , * * * * o o o o * * * h.j.R R R k.k.k.l.z.x.x.x.Q Q Q c.v.* * * * * * * * * * * O O O s.b.- - - ",
"      . X o o o o o o o o o o o o o o o o o o o o o o >.$.( ( ( 9 9 9 n.m.M.M.M.` ` ` O.;.o o o o o o o o o o o O O O 3 -       ",
"      . X o o o o o o o o o o o o o o o o o o o o o o >.$.( ( ( 9 9 9 n.m.M.M.M.` ` ` O.;.o o o o o o o o o o o O O O 3 -       ",
"      . X o o o o o o o o o o o o o o o o o o o o o o >.$.( ( ( 9 9 9 n.m.M.M.M.` ` ` O.;.o o o o o o o o o o o O O O 3 -       ",
"                O O O 2 * o o o Z Z Z m s O O O O O O 2 * o o o + + + 6 , o o o O O O O O O O O O O O 3 -                       ",
"                O O O 2 * o o o Z Z Z m s O O O O O O 2 * o o o + + + 6 , o o o O O O O O O O O O O O 3 -                       ",
"                O O O 2 * o o o Z Z Z m s O O O O O O 2 * o o o + + + 6 , o o o O O O O O O O O O O O 3 -                       ",
"4 4 4 4         3 3 3 A = X X X N.N.N.B.V.3 3 3 3 3 3 A = X X X @ @ @ L 5.* * * O O O C.Z.s s s s s s A.S.- - - - - - k 4 4 4 4 ",
"; ; ; L 4       - - - k . . . . D.D.D.F.G.- - - - - - k . . . . # # # # 2 2 2 2 O O O Z.H.m m m m m m H.A.3 3 3 3 3 3 l : ; ; ; ",
"+ + + ; 4                       | | | J.K.                      O O O O O O O O O O O s m Z Z Z Z Z Z m s O O O O O O # @ + + + ",
"+ + + ; 4                       | | | J.K.                      O O O O O O O O O O O s m Z Z Z Z Z Z m s O O O O O O # @ + + + ",
"+ + + ; 4                       | | | J.K.                      O O O O O O O O O O O s m Z Z Z Z Z Z m s O O O O O O # @ + + + ",
"      . X o o o o o o o o o o o o o o o o o o o o o o o o o o o Z Z Z L.P.I.I.I.M.M.M.M.M.M.M.M.U.U.U.Y.T.Z Z Z                 ",
"      . X o o o o o o o o o o o o o o o o o o o o o o o o o o o Z Z Z L.P.I.I.I.M.M.M.M.M.M.M.M.U.U.U.Y.T.Z Z Z                 ",
"      . X o o o o o o o o o o o o o o o o o o o o o o o o o o o Z Z Z L.P.I.I.I.M.M.M.M.M.M.M.M.U.U.U.Y.T.Z Z Z                 ",
"      . = * * * o o o R.p a a a >.>.>.E.i X X X X X X X o o o o n n n W.Q.!.!.!.m.m.m.~.^./././.(.(.(.)._.C C C - - - - - - - - ",
"      k A 2 2 2 o o o p `.n n n $.$.$.'.].. . . . . . 5 X o o o a a a [.{.}.}.}.n.n.n.|. X.X.X.XXXXXXXXXV V V V 3 3 3 3 3 3 3 3 ",
"      - 3 O O O o o o a n Z Z Z ( ( ( oXOX            . X o o o o o o +X@X#X#X#X9 9 9 0 q o o o                 O O O O O O O O ",
"      - 3 O O O o o o a n Z Z Z ( ( ( oXOX            . X o o o o o o +X@X#X#X#X9 9 9 0 q o o o                 O O O O O O O O ",
"      - 3 O O O o o o a n Z Z Z ( ( ( oXOX            . X o o o o o o +X@X#X#X#X9 9 9 0 q o o o                 O O O O O O O O ",
"                      . X o o o o o o o o o o o o o o o o o o o                 O O O O O O O O       . X o o o o o o X .       ",
"                      . X o o o o o o o o o o o o o o o o o o o                 O O O O O O O O       . X o o o o o o X .       ",
"                      . X o o o o o o o o o o o o o o o o o o o                 O O O O O O O O       . X o o o o o o X .       ",
". . . . . . . . . . . 5 X o o o , , , G * * * * * * * * P X X X                 3 3 3 3 2 2 2 2 . . . 5 X o o o X X X * .       ",
"X X X X X X X X X X X X o o o o 6 6 6 L T 2 2 2 2 2 2 A   . . .                 - - -   = * * * X X X X o o o o . . . .         ",
"o o o o o o o o o o o o o o o o + + + @ # O O O O O O 3 -                             . X o o o o o o o o o o o                 ",
"o o o o o o o o o o o o o o o o + + + @ # O O O O O O 3 -                             . X o o o o o o o o o o o                 ",
"o o o o o o o o o o o o o o o o + + + @ # O O O O O O 3 -                             . X o o o o o o o o o o o                 "
};
