/* XPM */
static char *result[] = {
/* columns rows colors chars-per-pixel */
"64 64 134 2 ",
"   c #7D7D7D",
".  c #758589",
"X  c #79878A",
"o  c #7D9CA3",
"O  c #4EBDD7",
"+  c #15C5EF",
"@  c #18C6EF",
"#  c #0ACAF7",
"$  c #13CCF7",
"%  c #16CDF8",
"&  c #3ECEEF",
"*  c #2ED2F8",
"=  c #3BD0F4",
"-  c #36D3F8",
";  c #3CD4F8",
":  c #4CC2DE",
">  c #53C3DD",
",  c #43C7E6",
"<  c #45C8E7",
"1  c #4ECAE7",
"2  c #43CCEC",
"3  c #4ACDEC",
"4  c #50C6E2",
"5  c #58C6E0",
"6  c #53C9E5",
"7  c #51CEEB",
"8  c #4ED0EF",
"9  c #50D1EF",
"0  c #44CFF0",
"q  c #44D6F9",
"w  c #4AD7F8",
"e  c #51D8F8",
"r  c #7DD2E6",
"t  c #7BD6EC",
"y  c #7EDAEF",
"u  c #75DCF4",
"i  c #7FDEF4",
"p  c #73E0FA",
"a  c #7CE3FB",
"s  c #848484",
"d  c #848C8E",
"f  c #8C8C8C",
"g  c #8C8F90",
"h  c #879092",
"j  c #8B9395",
"k  c #87979B",
"l  c #8A9699",
"z  c #85999D",
"x  c #8C999C",
"c  c #919191",
"v  c #919798",
"b  c #929A9C",
"n  c #9B9C9C",
"m  c #829CA2",
"M  c #8B9EA2",
"N  c #919EA1",
"B  c #999EA0",
"V  c #8CA1A6",
"C  c #8DA7AE",
"Z  c #9BA2A4",
"A  c #90A2A8",
"S  c #9AA6AA",
"D  c #95A9AD",
"F  c #9CAAAE",
"G  c #97ACB1",
"H  c #99ACB1",
"J  c #A5A5A5",
"K  c #A4A7A8",
"L  c #A4AAAC",
"P  c #A9A9A9",
"I  c #A4AFB1",
"U  c #A4B1B4",
"Y  c #ABB1B2",
"T  c #ACB6B8",
"R  c #A5BABF",
"E  c #ABB9BC",
"W  c #B5B5B5",
"Q  c #B5BBBD",
"!  c #BABABA",
"~  c #9EBCC3",
"^  c #A0BBC1",
"/  c #B1BEC1",
"(  c #95CEDC",
")  c #96D1DF",
"_  c #AEC5CB",
"`  c #B5C0C3",
"'  c #BDC3C4",
"]  c #BBD6DD",
"[  c #95CCE1",
"{  c #82D6EA",
"}  c #8AD6E9",
"|  c #83D9ED",
" . c #89D9EC",
".. c #94D5E5",
"X. c #9AD3E3",
"o. c #98D8E7",
"O. c #94D6EB",
"+. c #99D6EC",
"@. c #94DAEC",
"#. c #9CDAED",
"$. c #85DDF2",
"%. c #8EDCF1",
"&. c #8BDEF8",
"*. c #96DEF4",
"=. c #9ADDF0",
"-. c #96DEF8",
";. c #A4DBEE",
":. c #BFDDE5",
">. c #BADFE8",
",. c #8AE1F5",
"<. c #85E4FB",
"1. c #8CE5FB",
"2. c #95E1F3",
"3. c #99E1F2",
"4. c #93E7FB",
"5. c #9DE1F9",
"6. c #97E8FB",
"7. c #9AE9FB",
"8. c #AFE6F4",
"9. c #A0E2F9",
"0. c #A7EBFC",
"q. c #BCE7F2",
"w. c #BFE8F2",
"e. c #B0EDFC",
"r. c #BDEEFB",
"t. c #BDF0FD",
"y. c #C0E0E7",
"u. c #C3E3EC",
"i. c #C6EAF3",
"p. c #C8EAF2",
"a. c #C1EFFC",
"s. c #C8EEF8",
"d. c #C3F1FD",
"f. c #CBF3FD",
/* pixels */
"P P J J c c c c c c c c c c c c c c c c P P P P W W W ! W ! W W s s s f W W W W P J P J c c c c c c c c c c c c c c c c J P J P ",
"P J J J c c c c c c c c c c c c c c c c J J J P W W W W W W W W s s s f W W ! W P J J J c c c c c c c c c c c c c c c c J J J J ",
"P J J J c c f c c c c c c c c c c c c c J J J J W W W W W W W W f s s f W W W W J J J J c c c c f c c c c c c c c c f c J J J J ",
"P J J J c c c c c c c v c c c c c v c v P P P P W W ! W W W W P f s s c W ! W W P J P P c c c c c c c c c c c c c c c c J J J J ",
"J J J J J J J P W ! W W ! W W W ! W W W W W W W ! W W W W W W W P J J P W W W W W W W W W ! ! P f   s s Z J J J J J J J c c f c ",
"P J P J P J J J W W W W W W W ! W W W W W W W W W W W W W W W W P J J P W W W W W W ! W W W W Y f s s f J J P J J J P J c c c c ",
"P J J J J J J J W W W W W W W W W W W W W W W W W W W W W W W W P J J P W W W W W W ! W W W ! Y f   s s J J J J J P J J c c c f ",
"P J J J J J J J P W Y W W W W W T E E T W W W W W W W W W W W W P J J P W W W W W W W W W W W P c f d h Z S F F J J J P c c c c ",
"P J J J f s s f c n c n c c n M 6 3 3 8 v v v n c c n c n c v n W W W P n n c c P P P P P P P Y ) } ..} 9 3 3 > L J J J J J Z J ",
"P J J n s s s s f c c c c c c m 2 - - - j c c g c c c c c c c v W W W P c c c c P J J J J J J I @.4.4.1.q - - 3 F J J J J J J J ",
"P J J J s   s s c c c c c c c m 2 - - - c c c c c c c c c f g c W W W W c c c c J J J P J J J Y @.6.4.<.q - - 3 F J J J J J J J ",
"P J J J f f f f c c c c c c c m 4 3 2 2 g f f g c c c v n n B Z E Q ! Y c c c c n J J J J Z J P ) @.@. .3 , , > S J J J J J J J ",
"J J J P W Y W P J J J J J J J J F F F F s s s s P J J P y.i.i.i.3.3.3.o.L J J J c c c c c c c c b b b x j l l l c c c c J J P J ",
"P J J P W W W W P J J J P J J J J J J J s s s s J J P P u.f.f.d.7.4.6.@.L J J J c c c c c c c c c g f c c c c c c c c c J J J J ",
"P J J P ! W W W P J J J J J J J P J J J s s s s J J J P i.f.f.d.7.4.4.@.L J J J c c c c c c c c c c c c c c c c c c c c J P J J ",
"P J J J W W W W P P P J J J n J n J J J s s s s J J J K ] y.y.>.o...O.( K Z J Z n c c n n c c n n c n v c n c n c n c n n n n J ",
"P J J P W W W W W W W Y n c c c c c c c c f c c c c c c n n n b b v b v c c c c P Y W W W W Y W Y W W P W W Y W W Y W W s s f s ",
"P J J P W W ! W W W W W c c c c c c c f c c f c c c c c g f c f c c c f c c c c ! W W ! W W W W W W W W W ! W W W W W W s s s s ",
"J J J P W ! W W W W W W c c c c c c f c c c c c c c g c c c f c g g c c c c g c W W W W W W W W W ! ! W W W W W W W W ! s s s s ",
"P J J P W W W W W W W Y c c c c c c c c c c f c c c c g c c c c g c c c c c c g W W W W W W W W W W W W W W W W W W W W s   s s ",
"c c c c c c c c Z J P J P J J J J P J J p.s.f.f.-.-.-.+.x c c c J J J n s s s s p.f.f.s.-.-.-.+.Y J J P J P P J s s s s J J J J ",
"c c f c c c c c J J J J J J J J J J J J s.f.f.f.-.-.-.O.A c c c J P J J s s s s s.f.f.f.-.-.-.+.Y J P K J J J n s s s s J J J J ",
"c c c c c c c c J J K P J J J P J J J J f.f.f.f.-.-.-.#.b c c c J J J n s s s s s.f.f.f.-.-.3.o.U J J J J J J n s s s s J J J P ",
"n c c n c c c c J J J P P P P L L L L P r.t.r.r.&.-.&. .A v v v J J J J s s s s r.d.d.a.4.-.5.o.Y K K P P P P J f s s s n J J J ",
"W W W W W W W W P J P Y i.f.f.d.5.-.-.-.# # # # - - - ; <.4.4.2.P J J J J J P J = - - ; 4.4.4.2.! W W W W W W W W W W W s s   s ",
"W W W W ! W W W P J J Y s.f.f.d.5.5.-.-.# # # # - - - q <.4.4.*.L J J J K J J J = - - ; 4.4.4.2.` W W W W W W W W ! W ! f s s s ",
"W W W ! W W W W P J J Y i.f.f.d.5.-.-.-.# # # + - - - ; <.4.4.2.I J J J J J J J = - - ; 4.4.4.2.` W W W W W W W W W W W s s s   ",
"W W W W W W W W P J J Y u.i.i.q.=.O.O.*.+ + + + & & 0 2 $.2.2.o.L J J J J J J J & & & 0 2.2.2.@.E W W W W W W W W W W W f s s s ",
"P P P P P P P P J J J J Z Z B B N N B B o o o o m m z z N N N b c c v c c c v c z o z z N N N n n v c n c n c n P P P P J n J n ",
"P P J P J J J J J P J J c f c c g g c c g g f c g g c c c c c c c c c j c c c c c c g c c g c c f c c c c c c c J J J J J J J P ",
"P P J J J P J J J J J J c c c c c c c c g c c c g c c c j c c c c c c c c c c c c c g c c c c c c c c c f c c c J J J J J J J J ",
"P J J J P L I I F G G D j c f f v v c c c c c c c v c c c c c c n n b B b b b v c n c c n c c n c c c c n c c n P J P J P P P P ",
"P J P L 2.2.2.,.8 2 2 O X     f Y W W W c c c c J J J J J J J Y y.i.i.q.@.@.2.@.W W Y W Y W W W P W W P W W P W W W W W W W W W ",
"P J J L 4.4.4.1.q - - & .     s W ! ! ! c c c c J J J J J J J Y i.f.f.d.6.4.4.4.Q W W W W W ! W W ! W W W ! W ! W W W W W W W W ",
"P J J I 4.4.4.1.q - - , .     s W ! W ! c c f c J J J J J J J Y i.f.f.d.6.4.4.4.Q W W W W ! W W W ! ! W ! W W W W W W W W W W W ",
"P J J L ......} 6 , , O X     f P W W W c f c c J Z J Z U U U R 8.e.e.0.a a a p ~ ~ ^ ^ Y P W P W P W P P W P W W W W W W W W W ",
"P J J J v v v j v j j j f c c c c c c c c c f c c c c v ..2.2.<.w ; ; - % $ $ $ = ; = 0 c c c c c c c c c c c n W W W W J J J P ",
"J J J J f c c c c c h c c f c f c f c c c c c c f c c v O.4.4.<.q - - * # # # # - - - & c c c c c c f c c c c c W W W ! J J J J ",
"P J J J c c c c c c c c c c c c f c c c c f c c f c c v O.4.6.<.q - - * # # # # - - - & c c g c f c c c c c c n W W W W J J J J ",
"P J J J c f c f c c f c c c f c c c c c c c f c c c c v O.4.4.&.; - - * # # # # - - - & c c c c c c f c c c c c W W W W P P J J ",
"J J J P J J J J W ! ! W c c c o < & = = W ! ! ! ! ! ! W n c c n L S L Z j j j h W Q Q Q ! ! ! ! ! ! ! W P J J J J J P J J J J J ",
"P J J J J J J P ! ! ! W c c c o 2 - - - Q ! ! ! ! ! ! W n g c n J J J J c c c c ! ! ! ! ! ! ! ! ! ! ! W P J J J J J J J P J J J ",
"P J J J J J J P W ! ! W c c c m 2 - - - Q ! ! ! ! ! ! ! v c c c J J J J c c c c ! ! ! ! ! ! ! ! ! ! ! ! P J P J J J J J J J P J ",
"J J J J J J J P W ! ! W n c c z , = = = ! ! ! ! ! ! ! W c c c c J J J J n c c v W ! ! ! ! / Q Q / ! ! ! P P P P P J P J J J J J ",
"s s s s J J J J J J P J P J J n c c c c J J J J J J J J J J J P W ! ! ! ! ! ! ! J J J L 3.-.-.-.6.4.4.*.` ! ! ! ! ! ! ! s   s s ",
"s s s s J P J J J J J J J J J J c c f c J J J J J J J P J J J P ! ! ! ! ! ! ! ! P J J L -.-.-.-.6.6.4.3.` ! ! ! ! ! ! ! f s   s ",
"s s s s J J P J J J J J J J J J c c f c J J J P J J J J P J J J W ! ! ! ! ! ! ! J J J L -.-.-.4.4.6.4.3./ ! ! ! ! ! ! ! s   s s ",
"f s f s Z J J J n J J J J J J n c c c c Z J J J J n J J J J J J Q ` ` ` ' ' ' ' Y U U U &.&.&.&.<.<.<.,._ ` ' ! W W W W f f f s ",
"J J n n c c c c c n c c c c c n c c c c c c c c v c c c c c c B X.#.#.;.p.p.p.p.=.@.@.@.q 0 w w w w w w ,.=.=.) B n n c J n J n ",
"P J P J c c c c c c c c c c c c c c c c c c c c c c c c c c c b +.-.-.9.d.f.f.f.6.4.4.4.- - - - - - - q <.4.6.O.v c c c J J J J ",
"P J J J c c c c c c c c f c c c c g g f c c c c c c c c c c c v +.-.2.9.d.f.f.f.6.4.4.1.- - - - - - - ; 1.4.4...v c c c J J J J ",
"P J J J n c c c c c c c b b b c k m k k g c c c c c c c c g c n [ O.o.#.t.d.d.t.4.4.1.1.2 2 & 2 0 2 0 8 $.@.*...b v c v P P P P ",
"J J J P W W W W J J J F ..@.@.| 3 2 2 & J J J J J J J n c c f c x N b C y a a a p p p p l z z M D H G G I I I Y W W W W W ! ! W ",
"P J J J ! ! ! ! J J J I 2.6.4.a q - - - J J J J P J J J c c c c g g g M u p p p p p p u f c c c J J J J J J J P W ! ! ! ! ! ! ! ",
"P J J P ! ! ! W P J J U 2.4.4.<.q - - - J J J J J J J J c c c c g c c N u p p p p p p u c c c c J J J J J J J J ! ! ! ! ! ! ! ! ",
"P J J P ! W ! W P J K I ) ..@.| 1 < < < J n J n J J J n c c c c c c v N r t t t y y y { n c n n J J J J J J J J W W W W ! W W ! ",
"P P J J P P P P J J J J v v b v c l l l c c c c c c c c c c c c J J J J K I K I ! ! Q ` W W ! W J J J J c c c c c c c c J P P J ",
"J J J J J J J K P J J J c f f c f c g c g c c c c f c c g c c v J J J J J J J J ! ! ! ! ! ! ! W P J J J c c c c c c c c J J J J ",
"P J J P J J J J J J J J c c c c c c c c c g c c c c c c c c c c J J J J P J J J ! ! ! ! ! ! ! ! P J J J c c c c c c c c J J J J ",
"P J J J J J J J J J P J c f c c f c c c c c c c c c c f c c c c J J J J J J J J ! ! ! ! ! ! ! ! P P J J c c c c f c c f J J J P ",
"c c c c c c c c c c c c c c c f s s s s W ! W ! W W ! W P J J J J J J J J J J P J J P J c c c c c c c c c f c c J J J J J P J J ",
"c c c c c f c c c c f c c c c f s s s   ! ! ! ! ! ! ! ! P J J J J P J J J J J J J J J J c c c c c c c c c c c c J J J J J J J J ",
"c c c c c c c c c c c c c c c f s s s s ! ! ! ! ! ! ! ! P J J J J J J J J J J J J J J J c c f c c f c c c c c c J J J J J J J J ",
"c f c c c f c c f c c f c c c f s s   s ! ! ! ! ! ! ! ! P P J J J P P J J J P J J J J J c c c c c c c c c c c c J J J P J J J P "
};
