/* XPM */
static char *result[] = {
/* columns rows colors chars-per-pixel */
"64 64 154 2 ",
"   c #676767",
".  c #6C6A67",
"X  c #676868",
"o  c #6B6B6A",
"O  c #78766D",
"+  c #7E7B6D",
"@  c #6F7070",
"#  c #747474",
"$  c #787774",
"%  c #7C7A74",
"&  c #7D7D7D",
"*  c #877C52",
"=  c #897E53",
"-  c #867F66",
";  c #807C6A",
":  c #807E75",
">  c #807E7A",
",  c #BC9F3B",
"<  c #DEB11A",
"1  c #FFAA00",
"2  c #EDBB0F",
"3  c #F2BE0B",
"4  c #E9A51B",
"5  c #E4B616",
"6  c #E7B815",
"7  c #EBBB12",
"8  c #E1B51A",
"9  c #E7B91C",
"0  c #EBBB1B",
"q  c #FBB218",
"w  c #D59B21",
"e  c #C79836",
"r  c #CFAA2A",
"t  c #D5AE21",
"y  c #D9A42C",
"u  c #D2AC2A",
"i  c #DAB124",
"p  c #D6B02B",
"a  c #DDB52E",
"s  c #C6A637",
"d  c #C8A531",
"f  c #CBAA34",
"g  c #CDAD3B",
"h  c #D1AD31",
"j  c #DAB63A",
"k  c #DDB93B",
"l  c #E5AB2F",
"z  c #E4B920",
"x  c #E9BE2A",
"c  c #F8B82C",
"v  c #E4BC34",
"b  c #E8BF36",
"n  c #FFC500",
"m  c #FEC70C",
"M  c #FCC714",
"N  c #FBC816",
"B  c #FAC81C",
"V  c #F0C124",
"C  c #F9C924",
"Z  c #F8CA2B",
"A  c #F1C633",
"S  c #F7CB32",
"D  c #8D804F",
"F  c #8F845E",
"G  c #9A8B55",
"H  c #91845B",
"J  c #95885B",
"K  c #9C8E5E",
"L  c #9F905D",
"P  c #A28F4F",
"I  c #A6914D",
"U  c #A99758",
"Y  c #878066",
"T  c #8C8363",
"R  c #8A846C",
"E  c #908562",
"W  c #958A62",
"Q  c #948B6B",
"!  c #868275",
"~  c #8B8674",
"^  c #8D8875",
"/  c #84827E",
"(  c #8A867A",
")  c #8D897D",
"_  c #958E75",
"`  c #938E7E",
"'  c #9C9375",
"]  c #96917F",
"[  c #9B947B",
"{  c #A69867",
"}  c #AE9F66",
"|  c #A3966D",
" . c #A79A6B",
".. c #AA9C6A",
"X. c #A49571",
"o. c #A59A73",
"O. c #A0977E",
"+. c #A29A7D",
"@. c #B4A163",
"#. c #ADA27C",
"$. c #B3A675",
"%. c #B5A97C",
"&. c #BBAD7C",
"*. c #BFB17F",
"=. c #CEAE42",
"-. c #C3A94A",
";. c #DDBA43",
":. c #C7B36F",
">. c #D1B966",
",. c #D4BD6D",
"<. c #DABC6A",
"1. c #C4B47C",
"2. c #C8B77D",
"3. c #CBBA7D",
"4. c #D6BF70",
"5. c #D1BF7D",
"6. c #E8C14C",
"7. c #F4CD47",
"8. c #F1CE57",
"9. c #F0CD5C",
"0. c #DDC365",
"q. c #DEC46C",
"w. c #DEC571",
"e. c #D5C17E",
"r. c #DBC67E",
"t. c #DDC87E",
"y. c #E0C460",
"u. c #EFCB64",
"i. c #E4CA6F",
"p. c #EECC69",
"a. c #EFD065",
"s. c #EED06B",
"d. c #E1CC7E",
"f. c #EDD274",
"g. c #E7D07F",
"h. c #EBD37F",
"j. c #838383",
"k. c #8C8B85",
"l. c #8D8D8D",
"z. c #928E81",
"x. c #908F8B",
"c. c #979386",
"v. c #989485",
"b. c #94928B",
"n. c #9A978C",
"m. c #9D998C",
"M. c #909090",
"N. c #A29B84",
"B. c #A29D8C",
"V. c #A9A28A",
"C. c #BBAE82",
"Z. c #C2B483",
"A. c #CEBD84",
"S. c #D5C283",
/* pixels */
"& & j.& # # # # # # # # # # # # # # # # & j.& j.l.l.l.M.M.M.M.M.o     o l.l.M.l.j.& j.& # # # # # # # # # # # # # # # # j./ & & ",
"j.& & & # # # # # # # # # # # # # # # # & & & j.l.l.M.l.M.l.M.l.X X   @ l.l.l.l.j.& & & # # # # # # # # # # # # # # # # & & & j.",
"& & j.& & # # # # # # # # # # @ # # # # & & & j.l.M.M.l.l.M.M.M.X     o l.l.l.l.j.& & & # # # # # # # # # # # # # # # # & j.& j.",
"j.& j.& # # # # # # # # # # # # # # # # & & j.j.l.l.M.M.M.M.l.l.o o o o l.l.l.l.j.j.& & # # # # # # @ # # # # # # # # # & & & & ",
"& & & j.& & & & j.l.l.l.k.l.k.l.l.l.l.l.l.l.l.l.l.l.M.l.M.M.M.M.# # # # l.l.l.l.l.l.l.l.l.l.l.j.# o o o & & & & & & & & # # # $ ",
"& j.& j.& & & j.l.l.l.l.M.M.l.l.l.M.l.l.l.l.l.l.l.l.l.l.M.l.l.l.# # # # l.l.M.l.l.M.M.l.l.M.l.j.# X o o & & j.& j.& & & # # # # ",
"& & & & j.& & & l.l.l.l.l.l.l.M.l.M.M.l.l.M.l.l.l.l.l.l.M.l.l.l.@ # # & l.l.l.M.l.l.M.l.l.M.b.k.@ X o o $ & & & & & j.& $ # # # ",
"j.& j.& & & & & j.l.k.l.l.l.l.l.n.m.m.n.l.l.l.l.l.l.l.l.l.l.l.l.$ $ $ & j.l.l.l.l.l.l.l.l.l.l.j.& + + + R _ Q ^ & j.& j.# # # # ",
"j.& j.& @ @ o @ & & & & & & & / %.A.S.Z.O.& % & $ & & & & $ & % l.l.j.l.& & & & j.j.j.j.j.j.j.` $.3.3.>.j 8 i f ^ & & j.& & & & ",
"& & & & o X o o @ @ # # @ # # ! 1.h.h.5.' # # # # # @ # # # # # M.l.l.l.# # # # & & & & & & j.c.3.h.h.a.C n m 8 _ & & j.& & j.& ",
"& j.& j.o o X o # # # # # # # ( 1.g.S.5.' # # # # # # # # # $ # l.l.l.l.# # # # & > j.& & / & c.3.S.h.a.C n n 9 _ j.& & & j.& j.",
"& & > j.@ @ @ o # # # # # # # ! 1.d.g.3._ # @ # # # $ $ : > ~ : N.O.O.z.& # # # & & & & & & & z.1.g.S.0.b 7 7 u R & & & & & & & ",
"& & j.& j.j.j.j.& & & & & & & > z.N.N.` % o o @ $ & & > &.3.2.2.a a a g ! & & & # & # & # & # & _ _ [ _ K G G J $ & # & j.j.& & ",
"j.& j.& l.l.M.l.j.& & & j.& j.& & & & $ @ X o o & & & k.e.h.h.h.n 3 n 7 R & & & # # # # # # # # # # # # # @ # # # # # # & & & j.",
"j.& & & l.l.M.l.j.& & j.& & & & & j.& % @ X X o $ > & k.5.h.h.h.n n n 7 _ & & & # # # # # # # # # # # # # # # # # # # # & & & j.",
"& & j.& l.M.M.l.j.j.j.j.& & & & & & & & @ o o @ $ & & / 2.e.e.e.6 6 5 t R & & & & # & # # & # $ $ $ & $ & # & # & $ # & & $ & & ",
"& j.& & l.l.M.l.l.l.j.j.& # & # & # # # # @ @ # # & # & _ [ [ ' P P I G $ $ # & j.j.l.j.k.j.k.j.k.j.k.j.j.l.j.j.l.j.j.j.@ @ # @ ",
"& & j.& l.l.l.M.M.l.M.l.& # # # # # # # # # # # # # # # # # # # # # # # # # # & l.l.l.M.l.M.M.l.l.M.l.M.M.M.l.M.M.l.l.l.o X X X ",
"& j.& & l.l.M.M.l.l.l.k.# # # # # # # # # # # # # # # # # # # @ # # # # # # # $ l.l.M.M.l.M.b.M.l.M.M.M.M.l.l.l.l.M.M.l.o o X o ",
"& & & & j.l.k.l.l.l.l.k.& # # # # # # & ! ~ ( ! T H H - O # # # # # # # # # # & n.m.B.B.m.m.B.m.M.j.l.l.j.l.l.k.l.j.l.& @ o o o ",
"# # & # & & & & j.j.j.j.& & & & & & & ( #.2.1.:.=.u u d - # # # & & & $ @ o o % C.S.A.A.S.S.S.Z.z.& & & & & & & # # # # & # & # ",
"# # # # # # # # & & j.& & & & j.& > & c.Z.h.h.s.C n n 3 F # # # & & & & o X o ; 3.h.h.S.h.h.S.r.` # # # # # # # o o o o & & & & ",
"# # # # # # # # & j.& j.& j./ & & & > z.2.h.h.s.C n n 3 F # # # j.& & & o X X Y g.h.h.h.S.h.h.3._ # # # # # # # o X o o & & j.& ",
"# & # & # & # & & & & / ) ` z.` c.z.` +.4.a.a.8.C n n 3 I F F F & & & & @ o @ R r.h.S.f.s.a.a.,.' $ & # # & # # # @ o # # & & & ",
"l.l.l.j.l.k.l.j.j.& j.z.1.S.r.e.e.e.5.q.7.B B M m n n n 6 8 8 < & & & & & & # z.e.h.h.a.S B B v  .l.l.l.j.l.l.l.j.j.j.j.o o o # ",
"l.l.M.M.l.M.l.l.j.& j.z.r.h.h.h.h.h.h.s.Z n 3 n n n n n n n n n & j.& & & j.& z.e.h.h.9.B n n z } l.l.l.M.l.l.l.M.M.l.l.o o X   ",
"l.M.M.l.l.l.l.l.j.& & z.5.S.h.h.h.h.h.s.Z n n n n n n n n n n n & & & j.& & j.] e.h.h.9.B n n z } l.l.l.l.M.l.l.M.M.l.l.o o X X ",
"l.l.l.l.l.l.l.l.j.j.> ` 1.r.r.r.r.r.r.i.b 2 2 2 2 2 2 2 2 2 2 2 & & & & & & & ) 3.r.r.y.x 2 2 p  .l.l.l.l.l.l.l.l.l.l.l.o o o o ",
"j.& j.& j.j.j.& j.& & > > : & : : : : ; ; ; ; ; ; + ; ; ; ; ; ; # # # # o o o @ $ : : : ; ; ; : $ $ # $ & # # & & j.j.& & & & & ",
"j.& j.& & & j.& & & j.& # # # # # # # # # # @ # # # # # # @ # # # # # # o X X o # # # # @ # # # # # # # # # # # & & & j.& & & & ",
"& & & & & & & & j.j.& & $ # # # # # # # # # # # # # # @ # # # # # # # @ o X X o @ # # # # # # # # # # # # # # # & j.& & & j.j.& ",
"& j.& j.j.j.j.j.> > > > $ # # # # # # # # # # # # # # # # # @ $ $ $ $ $ . . . . # $ # # # # # # # # # # # # # # & & j.& & & & j.",
"& j.& j.e.r.t.w.V 7 7 r = o o o & l.M.j.& # # $ & & & & & & & & r.r.g.w.V 6 6 u ' l.l.l.l.l.l.l.l.l.l.l.l.l.l.l.l.l.l.l.l.l.l.l.",
"& & & & e.h.h.f.C n n < D   o # j.M.M.j.& # # # & & j.& & & j.& h.g.h.f.m n n 9 ' M.l.M.l.l.M.l.l.l.l.l.M.l.l.l.l.l.M.l.l.M.l.M.",
"j.& / & S.h.h.s.B n n < D X X o j.M.M.l.& @ # # & & / & j.& & & h.S.h.s.M n n < o.M.M.l.l.M.M.l.M.l.l.M.l.M.M.M.M.M.M.M.l.M.M.M.",
"j.& & & e.t.t.i.V 3 3 t = X o o & l.l.k.& # # # & & & & j.j.( / f.f.f.s.m n n V ..v.v.b.l.l.l.x.l.l.l.l.l.l.l.l.M.l.l.M.l.M.l.l.",
"& j.& & ( / ~ ~ T T T - O # @ # # & # & # # # # # # $ > 1.e.e.r.B B N N n n n m 7 9 0 s E & & & & $ & # & # & & l.M.M.l.j.j.j.j.",
"& & & j.$ # # # # # # # # # # # # # # # # # # # # # # : e.h.h.h.n n n n n n n n n n n t F @ @ # # # # # # # @ & j.l.M.l.& & j.& ",
"& j.& j.& @ # # # # # # # # # # # # # # # # # # # $ # % e.h.h.h.n n n n n n n n n n n t F # # @ # # # @ # # # & l.M.M.l.& j.& j.",
"& & & & # # # $ $ $ $ # # # # # % Y Y + $ & # & # # $ ! 2.r.t.r.6 6 2 2 V 7 7 7 6 M V f E % # & $ $ & # # # # & j.M.l.l.j.& & & ",
"j.& j.& & & & & j.l.k.j.# # # - , < < h  .l.j.l.l.j.l.k.j.^ ( ( * * * * T H H W | o.o.' z.k.l.j.j.l.k.j.& & & & j.j.j.j.& & & j.",
"& & & & & & & j.l.l.l.l.& # # T r n n 0 @.l.l.l.l.l.l.l.& # # #       X # # # & k.M.M.l.M.l.l.M.M.l.l.l.j.& j.& j.& & j.& j.& & ",
"j.& & & & & j.j.l.M.l.l.& # # T r n n 0 @.l.M.M.l.l.l.l.$ # # #       o # # # & l.l.M.l.l.M.l.l.M.M.l.l.j.j.& & & & & & & & j.& ",
"& $ & & & j.& & j.l.l.k.# # # ~ , 8 8 h  .l.l.l.l.l.l.l.& # # $ @ @ @ # # & # & k.l.l.b.m.B.B.m.+.+.o.' k.j.j.j.j.j.j.j.& & & & ",
"o o @ @ & & & j.j.j.j.j.& & & % T J G H ~ j.j.j.j.j.j.j.& & # & j.j.j.j.k.l.j.j.j.j.j.v.Z.S.S.w.;.a z g o.k.l.l.l.l.l.j.@ @ o @ ",
"X X X X & & j.& & & j.& & & & & & # # # & & j.& & j.& j.& & j.j.M.M.M.M.l.l.l.l.j.& j.[ e.h.h.a.C n n z ..b.l.l.l.M.l.l.X X X X ",
"X o X X & & & & & & & & & & & & $ # # # & & & & j.& & & j.& & & M.b.M.M.M.l.M.l.j.& j.[ S.g.h.a.C n n z ..M.l.M.l.l.M.l.o o X X ",
"o @ @ @ $ & & & & & & & & & & & $ # # # & & & & # & & & & & & & V.V.V.V.V.V.V.V.v.[ v.$.0.8.8.7.B n n 0 -.} } o.j.k.k.j.@ o @ @ ",
"& & & $ # # # & # # # $ # # & # # # # # # # # & # # # & # $ # # S.S.S.S.S.S.S.S.e.e.A.u.A B B M m n n m V 8 9 f R & & $ & & $ & ",
"& & & & # # # # # # # # # # # # # # # # # # # # # # # # # # # # h.h.h.h.S.h.h.h.h.h.h.9.B n n n n n n n n n n 8 Y # # # & & & & ",
"j.& & & # # # # # # # # # # # # # # # # # # # # # # # # # # # @ h.h.h.h.h.h.h.h.h.h.S.9.B n n n n n n n n n n 8 T # @ # & j.& j.",
"& & & j.& & & # # # # & ( _ _ _ W G G H ; & # # & # # # # # # @ 3.3.5.d.h.h.S.f.u.9.9.6.a t t t i i i i i i i s R & & & j.j.j.j.",
"& j.j.& l.k.l.j.$ # # ~ &.t.r.q.k 8 5 r L & & & & & & & # # # # ^ ~ ~ _ d.h.h.p.c q q y I E - E E Q Q Q Q Q Q _ j.l.l.j.M.l.l.l.",
"& & & & l.l.l.l.& # # ^ 3.S.h.p.Z n n 5 U & & & & & & & # # # # # # # & r.h.h.u.q 1 1 w - # $ $ & & & j.> / & j.l.M.M.M.M.M.M.l.",
"j.& j.j.l.l.l.l.# # # ^ 2.g.h.s.Z n n 5 U & & j.& & & & & # # # # # # : r.h.g.u.q 1 1 w = $ # # & & j.& & & / j.l.M.M.M.M.l.l.M.",
"& & & & l.l.l.j.& $ # ~ *.e.e.q.k 5 5 r { & & & & & & & # # # # # # # ! 3.S.e.<.l 4 4 e R # & # & & & & & & & & j.k.l.j.l.l.l.l.",
"& j.& j.j.j.j.j.& & & & ( ( ^ ^ T H H T + # # # # # # # # # # # & & & & c.] ] [ ' X.X.[ k.k.j.l.j.& & & & # # # & & & # j.j.j.j.",
"& & & & & & & j.j.& & & # # # # # # # # # # # # # # # # # # # # & & & j.& & & j.l.l.M.l.M.l.l.l.j.j.& & # # # # # @ # # j.& & j.",
"j.& j.& j.& & & & & j.& $ # # # # # # # # # # # # # # # # # # # & & j.& j.& & j.l.l.M.M.M.M.M.l.j.j.& & # # # # # # # & & & & j.",
"& & & & & & & & & & & & $ # # # # # @ # # # & # # & # $ # # $ $ j.& & & & & j.j.l.l.l.M.l.k.l.k.j.& & & & # # # # # # # j.j.& & ",
"$ # $ # # # # # # # # # # # # @ @ X o @ & l.l.l.l.l.l.l.j.& & & & & & j.& & & j.j.j.& & # & # # # # # # # # # # & & & & & & & j.",
"# # # # # # # # # # # # # # # @ o X X @ j.l.l.l.M.M.l.l.j.& & & & j.& & j.& j.& & j.& & # # $ # # # # # # # # # & j.& j.& j.& & ",
"# # # # @ # # # # # # # # # # # @ X X @ j.l.M.M.M.l.l.l.j.j.j.& j.& j.& j.& & & & & j.& # # # # # # # # # # # # & & & & & j.j.& ",
"@ # # # # # # # # # # # # # # @ o X X @ j.M.l.M.l.l.l.l.j.& & & j.& & & & & j.& & j.& & # # # # # @ # # # # # # & & & j.& & & j."
};
